<svg xmlns="http://www.w3.org/2000/svg" viewBox="0 0 29 43" width="29" height="43" color="#ffffff" role="img" aria-label="Extracted lightning icon from screenshot, traced contour">
  <path fill="currentColor" d="M 19.07 0.00 L 19.07 0.05 L 19.07 0.10 L 19.07 0.15 L 19.05 0.20 L 19.05 0.25 L 19.05 0.30 L 19.02 0.35 L 19.02 0.40 L 19.00 0.45 L 18.98 0.50 L 18.98 0.55 L 18.95 0.60 L 18.93 0.65 L 18.90 0.70 L 18.88 0.75 L 18.82 0.80 L 18.77 0.85 L 18.73 0.90 L 18.68 0.93 L 18.62 0.97 L 18.57 1.00 L 18.52 1.05 L 18.48 1.07 L 18.43 1.10 L 18.38 1.15 L 18.32 1.18 L 18.27 1.23 L 18.23 1.27 L 18.18 1.32 L 18.12 1.38 L 18.07 1.43 L 18.05 1.48 L 18.00 1.52 L 17.98 1.57 L 17.93 1.62 L 17.88 1.68 L 17.85 1.73 L 17.80 1.77 L 17.75 1.82 L 17.73 1.88 L 17.68 1.93 L 17.62 1.98 L 17.57 2.02 L 17.52 2.05 L 17.50 2.10 L 17.45 2.12 L 17.43 2.17 L 17.38 2.23 L 17.32 2.27 L 17.30 2.33 L 17.25 2.38 L 17.23 2.42 L 17.20 2.48 L 17.18 2.52 L 17.12 2.58 L 17.10 2.62 L 17.07 2.67 L 17.05 2.73 L 17.00 2.77 L 16.98 2.83 L 16.93 2.88 L 16.90 2.92 L 16.85 2.98 L 16.80 3.02 L 16.75 3.08 L 16.70 3.12 L 16.65 3.17 L 16.60 3.23 L 16.55 3.25 L 16.50 3.30 L 16.45 3.35 L 16.40 3.40 L 16.35 3.45 L 16.32 3.50 L 16.27 3.55 L 16.25 3.60 L 16.23 3.65 L 16.20 3.70 L 16.18 3.75 L 16.12 3.80 L 16.10 3.85 L 16.07 3.90 L 16.05 3.95 L 16.02 4.00 L 15.97 4.05 L 15.95 4.10 L 15.93 4.15 L 15.88 4.20 L 15.82 4.25 L 15.80 4.30 L 15.75 4.35 L 15.70 4.40 L 15.65 4.45 L 15.60 4.50 L 15.55 4.55 L 15.50 4.60 L 15.45 4.62 L 15.40 4.67 L 15.38 4.72 L 15.32 4.78 L 15.28 4.83 L 15.22 4.88 L 15.20 4.92 L 15.15 4.97 L 15.12 5.03 L 15.07 5.08 L 15.05 5.12 L 15.03 5.17 L 14.97 5.22 L 14.95 5.28 L 14.93 5.33 L 14.88 5.38 L 14.85 5.42 L 14.80 5.47 L 14.78 5.53 L 14.72 5.58 L 14.70 5.62 L 14.65 5.67 L 14.60 5.72 L 14.55 5.78 L 14.50 5.83 L 14.47 5.85 L 14.43 5.90 L 14.38 5.95 L 14.32 6.00 L 14.28 6.05 L 14.22 6.10 L 14.20 6.15 L 14.15 6.20 L 14.12 6.25 L 14.07 6.30 L 14.05 6.35 L 14.03 6.40 L 13.97 6.45 L 13.95 6.50 L 13.93 6.55 L 13.88 6.60 L 13.85 6.65 L 13.80 6.70 L 13.75 6.75 L 13.70 6.78 L 13.65 6.83 L 13.60 6.88 L 13.55 6.90 L 13.50 6.92 L 13.45 6.97 L 13.40 7.00 L 13.35 7.05 L 13.30 7.10 L 13.25 7.15 L 13.22 7.20 L 13.18 7.25 L 13.15 7.30 L 13.10 7.35 L 13.07 7.40 L 13.05 7.45 L 13.03 7.50 L 13.00 7.55 L 12.97 7.60 L 12.93 7.65 L 12.90 7.70 L 12.88 7.75 L 12.82 7.80 L 12.80 7.85 L 12.75 7.90 L 12.72 7.95 L 12.68 8.00 L 12.62 8.05 L 12.60 8.07 L 12.55 8.10 L 12.50 8.15 L 12.45 8.20 L 12.40 8.25 L 12.35 8.30 L 12.32 8.35 L 12.28 8.40 L 12.22 8.45 L 12.20 8.50 L 12.18 8.55 L 12.12 8.60 L 12.10 8.65 L 12.07 8.70 L 12.03 8.75 L 12.00 8.80 L 11.97 8.85 L 11.93 8.90 L 11.88 8.95 L 11.85 9.00 L 11.80 9.05 L 11.75 9.10 L 11.70 9.15 L 11.65 9.20 L 11.60 9.25 L 11.55 9.30 L 11.50 9.35 L 11.45 9.38 L 11.43 9.43 L 11.38 9.47 L 11.32 9.53 L 11.30 9.57 L 11.25 9.62 L 11.22 9.68 L 11.18 9.72 L 11.15 9.78 L 11.10 9.82 L 11.07 9.88 L 11.05 9.93 L 11.00 9.97 L 10.97 10.03 L 10.93 10.07 L 10.90 10.12 L 10.85 10.18 L 10.80 10.22 L 10.78 10.28 L 10.72 10.32 L 10.68 10.38 L 10.62 10.43 L 10.57 10.47 L 10.55 10.53 L 10.50 10.57 L 10.45 10.60 L 10.43 10.65 L 10.38 10.70 L 10.32 10.75 L 10.28 10.80 L 10.25 10.85 L 10.20 10.90 L 10.18 10.95 L 10.12 11.00 L 10.10 11.05 L 10.05 11.10 L 10.03 11.15 L 10.00 11.20 L 9.95 11.25 L 9.93 11.30 L 9.90 11.35 L 9.85 11.40 L 9.82 11.45 L 9.80 11.50 L 9.75 11.55 L 9.70 11.60 L 9.65 11.65 L 9.60 11.70 L 9.55 11.75 L 9.50 11.80 L 9.45 11.85 L 9.40 11.90 L 9.35 11.95 L 9.30 12.00 L 9.28 12.05 L 9.22 12.10 L 9.20 12.15 L 9.18 12.20 L 9.12 12.25 L 9.10 12.30 L 9.07 12.35 L 9.05 12.40 L 9.03 12.45 L 9.00 12.50 L 8.97 12.55 L 8.95 12.60 L 8.93 12.65 L 8.88 12.70 L 8.85 12.75 L 8.80 12.80 L 8.78 12.85 L 8.72 12.90 L 8.68 12.95 L 8.62 12.97 L 8.57 13.03 L 8.53 13.07 L 8.47 13.12 L 8.43 13.15 L 8.38 13.20 L 8.32 13.25 L 8.28 13.30 L 8.22 13.35 L 8.20 13.40 L 8.15 13.45 L 8.12 13.50 L 8.07 13.55 L 8.05 13.60 L 8.00 13.65 L 7.97 13.70 L 7.95 13.75 L 7.90 13.80 L 7.85 13.85 L 7.80 13.90 L 7.75 13.95 L 7.70 14.00 L 7.65 14.05 L 7.60 14.10 L 7.55 14.15 L 7.50 14.18 L 7.45 14.22 L 7.40 14.28 L 7.35 14.32 L 7.30 14.38 L 7.28 14.43 L 7.22 14.47 L 7.20 14.53 L 7.15 14.57 L 7.12 14.62 L 7.10 14.68 L 7.05 14.72 L 7.03 14.78 L 7.00 14.82 L 6.95 14.88 L 6.92 14.93 L 6.88 14.97 L 6.85 15.03 L 6.80 15.07 L 6.75 15.12 L 6.70 15.18 L 6.65 15.22 L 6.62 15.28 L 6.60 15.30 L 6.55 15.35 L 6.50 15.40 L 6.45 15.45 L 6.40 15.50 L 6.38 15.55 L 6.33 15.60 L 6.28 15.65 L 6.25 15.70 L 6.22 15.75 L 6.17 15.80 L 6.15 15.85 L 6.10 15.90 L 6.08 15.95 L 6.03 16.00 L 5.97 16.05 L 5.95 16.10 L 5.90 16.15 L 5.88 16.20 L 5.83 16.25 L 5.78 16.30 L 5.72 16.35 L 5.70 16.40 L 5.65 16.45 L 5.60 16.48 L 5.58 16.52 L 5.53 16.57 L 5.47 16.62 L 5.42 16.68 L 5.38 16.73 L 5.35 16.77 L 5.30 16.82 L 5.25 16.88 L 5.22 16.93 L 5.17 16.98 L 5.15 17.02 L 5.10 17.07 L 5.08 17.12 L 5.05 17.18 L 5.00 17.23 L 4.97 17.27 L 4.92 17.32 L 4.90 17.38 L 4.88 17.43 L 4.83 17.48 L 4.78 17.52 L 4.75 17.57 L 4.70 17.62 L 4.65 17.68 L 4.60 17.73 L 4.55 17.77 L 4.50 17.82 L 4.45 17.88 L 4.40 17.93 L 4.35 17.98 L 4.30 18.02 L 4.28 18.07 L 4.22 18.12 L 4.20 18.18 L 4.17 18.23 L 4.12 18.27 L 4.10 18.32 L 4.08 18.38 L 4.05 18.43 L 4.03 18.48 L 3.98 18.52 L 3.95 18.57 L 3.92 18.62 L 3.88 18.68 L 3.85 18.73 L 3.80 18.77 L 3.75 18.80 L 3.70 18.85 L 3.65 18.90 L 3.60 18.95 L 3.55 18.98 L 3.50 19.02 L 3.45 19.07 L 3.40 19.10 L 3.35 19.15 L 3.30 19.20 L 3.25 19.25 L 3.20 19.30 L 3.17 19.35 L 3.12 19.40 L 3.10 19.45 L 3.08 19.50 L 3.02 19.55 L 3.00 19.60 L 2.98 19.65 L 2.92 19.70 L 2.90 19.75 L 2.85 19.80 L 2.83 19.85 L 2.77 19.90 L 2.73 19.95 L 2.70 19.98 L 2.65 20.00 L 2.60 20.05 L 2.55 20.10 L 2.50 20.15 L 2.45 20.18 L 2.40 20.23 L 2.35 20.27 L 2.30 20.32 L 2.25 20.38 L 2.23 20.43 L 2.17 20.48 L 2.15 20.52 L 2.12 20.57 L 2.10 20.62 L 2.05 20.68 L 2.02 20.73 L 2.00 20.77 L 1.98 20.82 L 1.93 20.88 L 1.90 20.93 L 1.88 20.98 L 1.82 21.02 L 1.80 21.07 L 1.75 21.12 L 1.70 21.18 L 1.68 21.23 L 1.62 21.27 L 1.57 21.32 L 1.55 21.38 L 1.50 21.43 L 1.45 21.48 L 1.43 21.52 L 1.40 21.57 L 1.35 21.62 L 1.32 21.68 L 1.30 21.73 L 1.25 21.77 L 1.23 21.82 L 1.20 21.88 L 1.18 21.93 L 1.15 21.98 L 1.12 22.02 L 1.10 22.07 L 1.07 22.12 L 1.05 22.18 L 1.02 22.23 L 1.00 22.27 L 0.97 22.32 L 0.93 22.38 L 0.90 22.43 L 0.85 22.48 L 0.82 22.52 L 0.78 22.57 L 0.72 22.62 L 0.68 22.65 L 0.62 22.70 L 0.57 22.73 L 0.53 22.73 L 0.47 22.75 L 0.42 22.77 L 0.38 22.80 L 0.33 22.80 L 0.28 22.82 L 0.23 22.82 L 0.17 22.85 L 0.12 22.85 L 0.07 22.85 L 0.03 22.88 L 0.00 22.90 L 0.00 22.95 L 0.00 23.00 L 0.00 23.05 L 0.00 23.10 L 0.00 23.15 L 0.00 23.20 L 0.00 23.25 L 0.00 23.30 L 0.00 23.35 L 0.00 23.40 L 0.00 23.45 L 0.00 23.50 L 0.00 23.55 L 0.00 23.60 L 0.00 23.65 L 0.00 23.70 L 0.00 23.75 L 0.00 23.80 L 0.00 23.85 L 0.00 23.90 L 0.00 23.95 L 0.00 24.00 L 0.00 24.05 L 0.00 24.10 L 0.00 24.15 L 0.00 24.20 L 0.00 24.25 L 0.00 24.30 L 0.00 24.35 L 0.00 24.40 L 0.00 24.45 L 0.00 24.50 L 0.00 24.55 L 0.00 24.60 L 0.00 24.65 L 0.00 24.70 L 0.00 24.75 L 0.00 24.80 L 0.00 24.85 L 0.05 24.85 L 0.10 24.85 L 0.15 24.85 L 0.20 24.85 L 0.25 24.85 L 0.30 24.88 L 0.35 24.88 L 0.40 24.88 L 0.45 24.90 L 0.50 24.90 L 0.55 24.90 L 0.60 24.90 L 0.65 24.93 L 0.70 24.93 L 0.75 24.95 L 0.80 24.95 L 0.85 24.98 L 0.90 25.00 L 0.95 25.00 L 1.00 25.02 L 1.05 25.05 L 1.10 25.07 L 1.15 25.07 L 1.20 25.10 L 1.25 25.12 L 1.30 25.15 L 1.35 25.18 L 1.40 25.20 L 1.45 25.23 L 1.50 25.25 L 1.55 25.27 L 1.60 25.30 L 1.65 25.30 L 1.70 25.32 L 1.75 25.35 L 1.80 25.35 L 1.85 25.35 L 1.90 25.35 L 1.95 25.35 L 2.00 25.35 L 2.05 25.35 L 2.10 25.35 L 2.15 25.35 L 2.20 25.35 L 2.25 25.35 L 2.30 25.35 L 2.35 25.32 L 2.40 25.32 L 2.45 25.32 L 2.50 25.32 L 2.55 25.32 L 2.60 25.32 L 2.65 25.32 L 2.70 25.32 L 2.75 25.32 L 2.80 25.32 L 2.85 25.32 L 2.90 25.32 L 2.95 25.32 L 3.00 25.32 L 3.05 25.32 L 3.10 25.32 L 3.15 25.32 L 3.20 25.32 L 3.25 25.32 L 3.30 25.32 L 3.35 25.32 L 3.40 25.32 L 3.45 25.32 L 3.50 25.32 L 3.55 25.32 L 3.60 25.32 L 3.65 25.32 L 3.70 25.32 L 3.75 25.32 L 3.80 25.32 L 3.85 25.32 L 3.90 25.32 L 3.95 25.32 L 4.00 25.32 L 4.05 25.32 L 4.10 25.32 L 4.15 25.32 L 4.20 25.32 L 4.25 25.32 L 4.30 25.32 L 4.35 25.32 L 4.40 25.32 L 4.45 25.32 L 4.50 25.32 L 4.55 25.32 L 4.60 25.32 L 4.65 25.32 L 4.70 25.32 L 4.75 25.30 L 4.80 25.30 L 4.85 25.30 L 4.90 25.30 L 4.95 25.30 L 5.00 25.30 L 5.05 25.30 L 5.10 25.30 L 5.15 25.30 L 5.20 25.30 L 5.25 25.30 L 5.30 25.30 L 5.35 25.30 L 5.40 25.30 L 5.45 25.30 L 5.50 25.30 L 5.55 25.30 L 5.60 25.30 L 5.65 25.27 L 5.70 25.27 L 5.75 25.27 L 5.80 25.27 L 5.85 25.27 L 5.90 25.27 L 5.95 25.27 L 6.00 25.27 L 6.05 25.27 L 6.10 25.30 L 6.15 25.30 L 6.20 25.30 L 6.25 25.30 L 6.30 25.30 L 6.35 25.30 L 6.40 25.30 L 6.45 25.30 L 6.50 25.30 L 6.55 25.30 L 6.60 25.30 L 6.65 25.30 L 6.70 25.30 L 6.75 25.30 L 6.80 25.30 L 6.85 25.30 L 6.90 25.30 L 6.95 25.30 L 7.00 25.30 L 7.05 25.30 L 7.10 25.30 L 7.15 25.30 L 7.20 25.30 L 7.25 25.30 L 7.30 25.30 L 7.35 25.30 L 7.40 25.30 L 7.45 25.30 L 7.50 25.30 L 7.55 25.30 L 7.60 25.30 L 7.65 25.30 L 7.70 25.30 L 7.75 25.30 L 7.80 25.27 L 7.85 25.27 L 7.90 25.27 L 7.95 25.27 L 8.00 25.27 L 8.05 25.27 L 8.10 25.27 L 8.15 25.27 L 8.20 25.27 L 8.25 25.27 L 8.30 25.25 L 8.35 25.25 L 8.40 25.25 L 8.45 25.25 L 8.50 25.25 L 8.55 25.25 L 8.60 25.25 L 8.65 25.25 L 8.70 25.25 L 8.75 25.27 L 8.80 25.27 L 8.85 25.27 L 8.90 25.27 L 8.95 25.27 L 9.00 25.27 L 9.05 25.27 L 9.10 25.27 L 9.15 25.27 L 9.20 25.30 L 9.25 25.30 L 9.30 25.30 L 9.35 25.30 L 9.40 25.30 L 9.45 25.30 L 9.50 25.30 L 9.55 25.30 L 9.60 25.30 L 9.65 25.32 L 9.70 25.32 L 9.75 25.32 L 9.80 25.32 L 9.85 25.32 L 9.90 25.32 L 9.95 25.32 L 10.00 25.32 L 10.05 25.32 L 10.10 25.32 L 10.15 25.32 L 10.20 25.32 L 10.25 25.32 L 10.30 25.32 L 10.35 25.32 L 10.40 25.32 L 10.45 25.32 L 10.50 25.32 L 10.55 25.32 L 10.60 25.30 L 10.65 25.30 L 10.70 25.30 L 10.75 25.30 L 10.80 25.30 L 10.85 25.30 L 10.90 25.30 L 10.95 25.30 L 11.00 25.30 L 11.05 25.30 L 11.10 25.30 L 11.15 25.30 L 11.20 25.30 L 11.25 25.30 L 11.30 25.30 L 11.35 25.30 L 11.40 25.30 L 11.45 25.30 L 11.50 25.30 L 11.55 25.30 L 11.60 25.30 L 11.65 25.30 L 11.70 25.30 L 11.75 25.30 L 11.80 25.30 L 11.85 25.30 L 11.90 25.30 L 11.95 25.30 L 12.00 25.30 L 12.05 25.30 L 12.10 25.32 L 12.15 25.32 L 12.20 25.35 L 12.25 25.38 L 12.30 25.38 L 12.35 25.40 L 12.40 25.43 L 12.45 25.45 L 12.50 25.48 L 12.55 25.50 L 12.60 25.55 L 12.65 25.60 L 12.70 25.65 L 12.72 25.70 L 12.75 25.75 L 12.78 25.80 L 12.80 25.85 L 12.82 25.90 L 12.82 25.95 L 12.85 26.00 L 12.85 26.05 L 12.85 26.10 L 12.85 26.15 L 12.85 26.20 L 12.85 26.25 L 12.85 26.30 L 12.85 26.35 L 12.85 26.40 L 12.82 26.45 L 12.82 26.50 L 12.82 26.55 L 12.80 26.60 L 12.78 26.65 L 12.75 26.70 L 12.72 26.75 L 12.70 26.80 L 12.68 26.85 L 12.65 26.90 L 12.60 26.95 L 12.57 27.00 L 12.53 27.05 L 12.50 27.10 L 12.45 27.15 L 12.43 27.20 L 12.38 27.25 L 12.35 27.30 L 12.32 27.35 L 12.30 27.40 L 12.25 27.45 L 12.22 27.50 L 12.20 27.55 L 12.20 27.60 L 12.18 27.65 L 12.15 27.70 L 12.12 27.75 L 12.12 27.80 L 12.10 27.85 L 12.10 27.90 L 12.07 27.95 L 12.07 28.00 L 12.05 28.05 L 12.05 28.10 L 12.03 28.15 L 12.03 28.20 L 12.00 28.25 L 12.00 28.30 L 11.97 28.35 L 11.95 28.40 L 11.95 28.45 L 11.93 28.50 L 11.93 28.55 L 11.90 28.60 L 11.88 28.65 L 11.88 28.70 L 11.85 28.75 L 11.82 28.80 L 11.80 28.85 L 11.78 28.90 L 11.75 28.95 L 11.72 29.00 L 11.70 29.05 L 11.68 29.10 L 11.65 29.15 L 11.62 29.20 L 11.60 29.25 L 11.55 29.30 L 11.53 29.35 L 11.50 29.40 L 11.47 29.45 L 11.45 29.50 L 11.43 29.55 L 11.43 29.60 L 11.40 29.65 L 11.38 29.70 L 11.35 29.75 L 11.32 29.80 L 11.32 29.85 L 11.30 29.90 L 11.28 29.95 L 11.28 30.00 L 11.25 30.05 L 11.25 30.10 L 11.22 30.15 L 11.22 30.20 L 11.20 30.25 L 11.20 30.30 L 11.20 30.35 L 11.18 30.40 L 11.18 30.45 L 11.18 30.50 L 11.15 30.55 L 11.15 30.60 L 11.15 30.65 L 11.12 30.70 L 11.12 30.75 L 11.10 30.80 L 11.10 30.85 L 11.10 30.90 L 11.07 30.95 L 11.07 31.00 L 11.05 31.05 L 11.05 31.10 L 11.03 31.15 L 11.03 31.20 L 11.00 31.25 L 11.00 31.30 L 10.97 31.35 L 10.95 31.40 L 10.93 31.45 L 10.93 31.50 L 10.90 31.55 L 10.88 31.60 L 10.82 31.65 L 10.80 31.70 L 10.78 31.75 L 10.72 31.80 L 10.68 31.85 L 10.65 31.90 L 10.60 31.95 L 10.55 32.00 L 10.50 32.05 L 10.45 32.10 L 10.40 32.15 L 10.38 32.20 L 10.35 32.25 L 10.30 32.30 L 10.28 32.35 L 10.25 32.40 L 10.22 32.45 L 10.20 32.50 L 10.20 32.55 L 10.18 32.60 L 10.15 32.65 L 10.15 32.70 L 10.12 32.75 L 10.12 32.80 L 10.10 32.85 L 10.10 32.90 L 10.07 32.95 L 10.07 33.00 L 10.05 33.05 L 10.05 33.10 L 10.03 33.15 L 10.03 33.20 L 10.03 33.25 L 10.00 33.30 L 10.00 33.35 L 10.00 33.40 L 9.97 33.45 L 9.97 33.50 L 9.95 33.55 L 9.95 33.60 L 9.95 33.65 L 9.93 33.70 L 9.93 33.75 L 9.90 33.80 L 9.90 33.85 L 9.88 33.90 L 9.85 33.95 L 9.85 34.00 L 9.82 34.05 L 9.82 34.10 L 9.80 34.15 L 9.78 34.20 L 9.75 34.25 L 9.72 34.30 L 9.70 34.35 L 9.70 34.40 L 9.68 34.45 L 9.65 34.50 L 9.62 34.55 L 9.60 34.60 L 9.57 34.65 L 9.55 34.70 L 9.53 34.75 L 9.50 34.80 L 9.47 34.85 L 9.45 34.90 L 9.43 34.95 L 9.40 35.00 L 9.38 35.05 L 9.35 35.10 L 9.32 35.15 L 9.32 35.20 L 9.30 35.25 L 9.28 35.30 L 9.28 35.35 L 9.25 35.40 L 9.22 35.45 L 9.22 35.50 L 9.20 35.55 L 9.20 35.60 L 9.18 35.65 L 9.18 35.70 L 9.15 35.75 L 9.15 35.80 L 9.12 35.85 L 9.12 35.90 L 9.10 35.95 L 9.10 36.00 L 9.07 36.05 L 9.07 36.10 L 9.05 36.15 L 9.05 36.20 L 9.03 36.25 L 9.03 36.30 L 9.00 36.35 L 8.97 36.40 L 8.97 36.45 L 8.95 36.50 L 8.93 36.55 L 8.90 36.60 L 8.90 36.65 L 8.88 36.70 L 8.82 36.75 L 8.80 36.80 L 8.78 36.85 L 8.72 36.90 L 8.70 36.95 L 8.65 37.00 L 8.60 37.05 L 8.57 37.10 L 8.53 37.15 L 8.47 37.20 L 8.45 37.25 L 8.40 37.30 L 8.38 37.35 L 8.35 37.40 L 8.32 37.45 L 8.30 37.50 L 8.28 37.55 L 8.25 37.60 L 8.22 37.65 L 8.20 37.70 L 8.20 37.75 L 8.18 37.80 L 8.18 37.85 L 8.15 37.90 L 8.15 37.95 L 8.12 38.00 L 8.12 38.05 L 8.10 38.10 L 8.10 38.15 L 8.10 38.20 L 8.07 38.25 L 8.07 38.30 L 8.07 38.35 L 8.07 38.40 L 8.05 38.45 L 8.05 38.50 L 8.05 38.55 L 8.05 38.60 L 8.03 38.65 L 8.03 38.70 L 8.03 38.75 L 8.03 38.80 L 8.00 38.85 L 8.00 38.90 L 8.00 38.95 L 7.97 39.00 L 7.97 39.05 L 7.97 39.10 L 7.95 39.15 L 7.95 39.20 L 7.92 39.25 L 7.92 39.30 L 7.90 39.35 L 7.88 39.40 L 7.88 39.45 L 7.85 39.50 L 7.83 39.55 L 7.80 39.60 L 7.78 39.65 L 7.75 39.70 L 7.72 39.75 L 7.70 39.80 L 7.65 39.85 L 7.62 39.90 L 7.58 39.95 L 7.55 40.00 L 7.53 40.05 L 7.47 40.10 L 7.45 40.15 L 7.40 40.20 L 7.38 40.25 L 7.35 40.30 L 7.33 40.35 L 7.30 40.40 L 7.28 40.45 L 7.25 40.50 L 7.25 40.55 L 7.22 40.60 L 7.20 40.65 L 7.20 40.70 L 7.17 40.75 L 7.15 40.80 L 7.15 40.85 L 7.12 40.90 L 7.12 40.95 L 7.10 41.00 L 7.10 41.05 L 7.08 41.10 L 7.08 41.15 L 7.08 41.20 L 7.05 41.25 L 7.05 41.30 L 7.05 41.35 L 7.05 41.40 L 7.05 41.45 L 7.03 41.50 L 7.03 41.55 L 7.03 41.60 L 7.03 41.65 L 7.03 41.70 L 7.03 41.75 L 7.03 41.80 L 7.03 41.85 L 7.03 41.90 L 7.03 41.95 L 7.03 42.00 L 7.03 42.05 L 7.03 42.10 L 7.03 42.15 L 7.03 42.20 L 7.03 42.25 L 7.03 42.30 L 7.03 42.35 L 7.03 42.40 L 7.03 42.45 L 7.03 42.50 L 7.03 42.55 L 7.03 42.60 L 7.03 42.65 L 7.03 42.70 L 7.03 42.75 L 7.03 42.80 L 7.05 42.85 L 7.05 42.90 L 7.05 42.95 L 7.08 42.98 L 7.12 42.98 L 7.17 42.98 L 7.22 42.98 L 7.28 42.98 L 7.33 42.98 L 7.38 42.98 L 7.42 42.98 L 7.47 42.98 L 7.53 42.98 L 7.58 42.98 L 7.62 42.98 L 7.67 42.98 L 7.72 42.98 L 7.78 42.98 L 7.83 42.98 L 7.88 42.98 L 7.92 42.98 L 7.97 42.98 L 8.03 42.98 L 8.07 42.98 L 8.12 42.98 L 8.18 42.98 L 8.22 42.98 L 8.28 42.98 L 8.32 42.98 L 8.38 42.98 L 8.43 42.98 L 8.47 42.98 L 8.53 42.98 L 8.57 42.98 L 8.62 42.98 L 8.68 42.98 L 8.72 42.98 L 8.78 42.98 L 8.82 42.98 L 8.88 42.98 L 8.93 42.98 L 8.97 42.98 L 9.03 42.98 L 9.07 42.98 L 9.12 42.98 L 9.18 42.98 L 9.22 42.98 L 9.28 42.98 L 9.32 42.98 L 9.38 42.98 L 9.43 42.98 L 9.47 42.98 L 9.53 42.98 L 9.57 42.98 L 9.62 42.98 L 9.68 42.98 L 9.72 42.98 L 9.78 42.98 L 9.82 42.98 L 9.88 42.98 L 9.93 42.98 L 9.93 42.92 L 9.93 42.88 L 9.93 42.83 L 9.93 42.77 L 9.95 42.73 L 9.95 42.67 L 9.95 42.62 L 9.97 42.58 L 9.97 42.52 L 10.00 42.48 L 10.03 42.42 L 10.03 42.38 L 10.05 42.33 L 10.07 42.27 L 10.10 42.23 L 10.15 42.17 L 10.20 42.12 L 10.25 42.08 L 10.30 42.02 L 10.35 42.00 L 10.40 41.95 L 10.45 41.92 L 10.50 41.90 L 10.55 41.85 L 10.60 41.83 L 10.65 41.77 L 10.70 41.75 L 10.75 41.70 L 10.80 41.65 L 10.85 41.60 L 10.88 41.55 L 10.93 41.50 L 10.97 41.45 L 11.00 41.40 L 11.05 41.35 L 11.07 41.30 L 11.12 41.25 L 11.18 41.20 L 11.20 41.15 L 11.25 41.10 L 11.30 41.05 L 11.35 41.00 L 11.40 40.95 L 11.45 40.90 L 11.50 40.85 L 11.55 40.80 L 11.60 40.75 L 11.65 40.70 L 11.68 40.65 L 11.72 40.60 L 11.75 40.55 L 11.78 40.50 L 11.80 40.45 L 11.85 40.40 L 11.88 40.35 L 11.90 40.30 L 11.93 40.25 L 11.97 40.20 L 12.00 40.15 L 12.03 40.10 L 12.07 40.05 L 12.12 40.00 L 12.18 39.95 L 12.22 39.90 L 12.28 39.85 L 12.32 39.80 L 12.38 39.75 L 12.43 39.73 L 12.47 39.67 L 12.53 39.62 L 12.57 39.58 L 12.62 39.52 L 12.68 39.48 L 12.70 39.42 L 12.75 39.38 L 12.78 39.33 L 12.80 39.27 L 12.82 39.23 L 12.88 39.17 L 12.90 39.12 L 12.93 39.08 L 12.95 39.02 L 12.97 38.98 L 13.00 38.92 L 13.03 38.88 L 13.07 38.83 L 13.10 38.77 L 13.15 38.73 L 13.18 38.67 L 13.22 38.62 L 13.25 38.58 L 13.30 38.52 L 13.35 38.48 L 13.40 38.42 L 13.45 38.38 L 13.50 38.33 L 13.55 38.27 L 13.60 38.23 L 13.65 38.17 L 13.70 38.12 L 13.75 38.08 L 13.78 38.02 L 13.82 37.98 L 13.85 37.92 L 13.90 37.88 L 13.93 37.83 L 13.97 37.77 L 14.00 37.73 L 14.03 37.67 L 14.07 37.62 L 14.10 37.58 L 14.12 37.52 L 14.18 37.48 L 14.20 37.42 L 14.25 37.38 L 14.30 37.33 L 14.32 37.27 L 14.38 37.25 L 14.43 37.20 L 14.47 37.15 L 14.53 37.10 L 14.57 37.05 L 14.62 37.00 L 14.68 36.95 L 14.70 36.90 L 14.75 36.85 L 14.80 36.80 L 14.82 36.75 L 14.85 36.70 L 14.90 36.65 L 14.93 36.60 L 14.95 36.55 L 15.00 36.50 L 15.03 36.45 L 15.05 36.40 L 15.10 36.35 L 15.12 36.30 L 15.18 36.25 L 15.22 36.20 L 15.28 36.15 L 15.32 36.10 L 15.38 36.08 L 15.43 36.02 L 15.47 36.00 L 15.53 35.95 L 15.57 35.92 L 15.62 35.88 L 15.68 35.83 L 15.72 35.77 L 15.75 35.73 L 15.80 35.67 L 15.82 35.62 L 15.88 35.58 L 15.90 35.52 L 15.93 35.48 L 15.95 35.42 L 15.97 35.38 L 16.00 35.33 L 16.05 35.27 L 16.07 35.23 L 16.10 35.17 L 16.15 35.12 L 16.18 35.08 L 16.23 35.02 L 16.27 34.98 L 16.32 34.92 L 16.38 34.88 L 16.43 34.83 L 16.48 34.77 L 16.52 34.73 L 16.57 34.67 L 16.62 34.62 L 16.68 34.58 L 16.70 34.52 L 16.75 34.48 L 16.77 34.42 L 16.82 34.38 L 16.85 34.33 L 16.90 34.27 L 16.93 34.23 L 16.98 34.17 L 17.00 34.12 L 17.05 34.08 L 17.10 34.02 L 17.12 33.98 L 17.18 33.92 L 17.23 33.88 L 17.27 33.83 L 17.32 33.77 L 17.38 33.75 L 17.43 33.70 L 17.48 33.65 L 17.52 33.60 L 17.57 33.55 L 17.62 33.50 L 17.65 33.45 L 17.70 33.40 L 17.73 33.35 L 17.75 33.30 L 17.80 33.25 L 17.82 33.20 L 17.88 33.15 L 17.90 33.10 L 17.95 33.05 L 17.98 33.00 L 18.02 32.95 L 18.05 32.90 L 18.10 32.85 L 18.12 32.80 L 18.18 32.75 L 18.23 32.70 L 18.27 32.65 L 18.32 32.60 L 18.35 32.55 L 18.40 32.50 L 18.45 32.45 L 18.50 32.40 L 18.55 32.35 L 18.60 32.30 L 18.65 32.25 L 18.68 32.20 L 18.73 32.15 L 18.75 32.10 L 18.80 32.05 L 18.82 32.00 L 18.85 31.95 L 18.90 31.90 L 18.93 31.85 L 18.95 31.80 L 19.00 31.75 L 19.02 31.70 L 19.05 31.65 L 19.07 31.60 L 19.12 31.55 L 19.15 31.50 L 19.20 31.45 L 19.23 31.40 L 19.27 31.35 L 19.32 31.30 L 19.38 31.25 L 19.43 31.20 L 19.48 31.15 L 19.52 31.10 L 19.57 31.05 L 19.62 31.00 L 19.68 30.95 L 19.70 30.90 L 19.75 30.85 L 19.77 30.80 L 19.82 30.75 L 19.85 30.70 L 19.88 30.65 L 19.90 30.60 L 19.93 30.55 L 19.95 30.50 L 20.00 30.45 L 20.02 30.40 L 20.05 30.35 L 20.07 30.30 L 20.12 30.25 L 20.15 30.20 L 20.20 30.15 L 20.25 30.12 L 20.30 30.07 L 20.35 30.02 L 20.40 30.00 L 20.45 29.95 L 20.50 29.93 L 20.55 29.88 L 20.60 29.82 L 20.65 29.80 L 20.70 29.75 L 20.75 29.70 L 20.77 29.65 L 20.82 29.60 L 20.85 29.55 L 20.90 29.50 L 20.93 29.45 L 20.95 29.40 L 20.98 29.35 L 21.02 29.30 L 21.05 29.25 L 21.07 29.20 L 21.12 29.15 L 21.15 29.10 L 21.20 29.05 L 21.25 29.00 L 21.30 28.95 L 21.35 28.90 L 21.40 28.85 L 21.45 28.80 L 21.50 28.75 L 21.55 28.70 L 21.60 28.65 L 21.65 28.60 L 21.70 28.55 L 21.73 28.50 L 21.77 28.45 L 21.80 28.40 L 21.82 28.35 L 21.88 28.30 L 21.90 28.25 L 21.95 28.20 L 21.98 28.15 L 22.02 28.10 L 22.07 28.05 L 22.12 28.00 L 22.15 27.95 L 22.20 27.93 L 22.25 27.88 L 22.30 27.82 L 22.35 27.77 L 22.40 27.73 L 22.45 27.70 L 22.50 27.65 L 22.55 27.60 L 22.60 27.55 L 22.65 27.50 L 22.68 27.45 L 22.73 27.40 L 22.75 27.35 L 22.77 27.30 L 22.82 27.25 L 22.85 27.20 L 22.88 27.15 L 22.90 27.10 L 22.93 27.05 L 22.95 27.00 L 23.00 26.95 L 23.02 26.90 L 23.05 26.85 L 23.07 26.80 L 23.12 26.75 L 23.15 26.70 L 23.20 26.65 L 23.23 26.60 L 23.27 26.55 L 23.30 26.50 L 23.35 26.45 L 23.40 26.40 L 23.45 26.35 L 23.50 26.30 L 23.55 26.25 L 23.60 26.20 L 23.65 26.15 L 23.70 26.10 L 23.75 26.05 L 23.80 26.00 L 23.82 25.95 L 23.88 25.90 L 23.90 25.85 L 23.95 25.80 L 23.98 25.75 L 24.00 25.70 L 24.05 25.65 L 24.07 25.60 L 24.12 25.55 L 24.15 25.50 L 24.18 25.45 L 24.23 25.40 L 24.25 25.35 L 24.30 25.30 L 24.35 25.25 L 24.38 25.20 L 24.43 25.15 L 24.48 25.10 L 24.52 25.05 L 24.55 25.00 L 24.60 24.95 L 24.65 24.90 L 24.68 24.85 L 24.73 24.80 L 24.75 24.75 L 24.80 24.70 L 24.82 24.65 L 24.88 24.60 L 24.90 24.55 L 24.93 24.50 L 24.98 24.45 L 25.00 24.40 L 25.05 24.35 L 25.07 24.30 L 25.12 24.25 L 25.18 24.20 L 25.23 24.15 L 25.27 24.10 L 25.32 24.05 L 25.38 24.02 L 25.43 23.98 L 25.48 23.93 L 25.52 23.90 L 25.57 23.85 L 25.62 23.80 L 25.68 23.75 L 25.70 23.70 L 25.75 23.65 L 25.77 23.60 L 25.82 23.55 L 25.85 23.50 L 25.88 23.45 L 25.93 23.40 L 25.95 23.35 L 25.98 23.30 L 26.02 23.25 L 26.05 23.20 L 26.10 23.15 L 26.15 23.10 L 26.20 23.05 L 26.25 23.00 L 26.30 22.95 L 26.35 22.90 L 26.40 22.85 L 26.45 22.82 L 26.50 22.77 L 26.55 22.73 L 26.60 22.68 L 26.65 22.62 L 26.68 22.57 L 26.73 22.52 L 26.77 22.48 L 26.80 22.43 L 26.82 22.38 L 26.88 22.32 L 26.90 22.27 L 26.93 22.23 L 26.98 22.18 L 27.00 22.12 L 27.02 22.07 L 27.07 22.02 L 27.10 21.98 L 27.15 21.93 L 27.20 21.88 L 27.23 21.82 L 27.27 21.77 L 27.30 21.73 L 27.35 21.68 L 27.38 21.62 L 27.43 21.57 L 27.48 21.52 L 27.50 21.48 L 27.55 21.43 L 27.57 21.38 L 27.60 21.32 L 27.65 21.27 L 27.68 21.23 L 27.70 21.18 L 27.73 21.12 L 27.77 21.07 L 27.80 21.02 L 27.82 20.98 L 27.85 20.93 L 27.88 20.88 L 27.90 20.82 L 27.95 20.77 L 27.98 20.73 L 28.00 20.68 L 28.02 20.62 L 28.07 20.57 L 28.12 20.52 L 28.15 20.48 L 28.20 20.43 L 28.25 20.38 L 28.30 20.35 L 28.35 20.30 L 28.40 20.27 L 28.45 20.25 L 28.50 20.23 L 28.55 20.20 L 28.60 20.18 L 28.65 20.18 L 28.70 20.15 L 28.75 20.15 L 28.80 20.12 L 28.85 20.12 L 28.90 20.10 L 28.95 20.10 L 28.98 20.07 L 28.98 20.02 L 28.98 19.98 L 28.98 19.93 L 28.98 19.88 L 28.98 19.82 L 28.98 19.77 L 28.98 19.73 L 28.98 19.68 L 28.98 19.62 L 28.98 19.57 L 28.98 19.52 L 28.98 19.48 L 28.98 19.43 L 28.98 19.38 L 28.98 19.32 L 28.98 19.27 L 28.98 19.23 L 28.98 19.18 L 28.98 19.12 L 28.98 19.07 L 28.98 19.02 L 28.98 18.98 L 28.98 18.93 L 28.98 18.88 L 28.98 18.82 L 28.98 18.77 L 28.98 18.73 L 28.98 18.68 L 28.98 18.62 L 28.98 18.57 L 28.98 18.52 L 28.98 18.48 L 28.98 18.43 L 28.98 18.38 L 28.98 18.32 L 28.98 18.27 L 28.98 18.23 L 28.98 18.18 L 28.98 18.12 L 28.93 18.12 L 28.88 18.12 L 28.82 18.10 L 28.77 18.10 L 28.73 18.10 L 28.68 18.10 L 28.62 18.10 L 28.57 18.10 L 28.52 18.07 L 28.48 18.07 L 28.43 18.07 L 28.38 18.07 L 28.32 18.05 L 28.27 18.05 L 28.23 18.05 L 28.18 18.02 L 28.12 18.02 L 28.07 18.00 L 28.02 18.00 L 27.98 17.98 L 27.93 17.95 L 27.88 17.95 L 27.82 17.93 L 27.77 17.90 L 27.73 17.88 L 27.68 17.85 L 27.62 17.82 L 27.57 17.80 L 27.52 17.77 L 27.48 17.75 L 27.43 17.75 L 27.38 17.73 L 27.32 17.70 L 27.27 17.70 L 27.23 17.68 L 27.18 17.68 L 27.12 17.68 L 27.07 17.68 L 27.02 17.65 L 26.98 17.65 L 26.93 17.68 L 26.88 17.68 L 26.82 17.68 L 26.77 17.68 L 26.73 17.68 L 26.68 17.68 L 26.62 17.70 L 26.57 17.70 L 26.52 17.70 L 26.48 17.70 L 26.43 17.70 L 26.38 17.70 L 26.32 17.70 L 26.27 17.70 L 26.23 17.70 L 26.18 17.70 L 26.12 17.70 L 26.07 17.70 L 26.02 17.70 L 25.98 17.70 L 25.93 17.70 L 25.88 17.70 L 25.82 17.70 L 25.77 17.70 L 25.73 17.70 L 25.68 17.70 L 25.62 17.70 L 25.57 17.70 L 25.52 17.70 L 25.48 17.70 L 25.43 17.70 L 25.38 17.70 L 25.32 17.70 L 25.27 17.70 L 25.23 17.70 L 25.18 17.70 L 25.12 17.70 L 25.07 17.70 L 25.02 17.70 L 24.98 17.70 L 24.93 17.73 L 24.88 17.73 L 24.82 17.73 L 24.77 17.73 L 24.73 17.73 L 24.68 17.70 L 24.62 17.70 L 24.57 17.70 L 24.52 17.70 L 24.48 17.70 L 24.43 17.70 L 24.38 17.70 L 24.32 17.70 L 24.27 17.70 L 24.23 17.70 L 24.18 17.70 L 24.12 17.70 L 24.07 17.70 L 24.02 17.70 L 23.98 17.70 L 23.93 17.70 L 23.88 17.68 L 23.82 17.68 L 23.77 17.68 L 23.73 17.68 L 23.68 17.68 L 23.62 17.68 L 23.57 17.68 L 23.52 17.68 L 23.48 17.68 L 23.43 17.68 L 23.38 17.70 L 23.32 17.70 L 23.27 17.70 L 23.23 17.70 L 23.18 17.70 L 23.12 17.73 L 23.07 17.73 L 23.02 17.73 L 22.98 17.73 L 22.93 17.73 L 22.88 17.73 L 22.82 17.75 L 22.77 17.75 L 22.73 17.75 L 22.68 17.75 L 22.62 17.75 L 22.57 17.75 L 22.52 17.75 L 22.48 17.75 L 22.43 17.75 L 22.38 17.75 L 22.32 17.75 L 22.27 17.75 L 22.23 17.75 L 22.18 17.75 L 22.12 17.73 L 22.07 17.73 L 22.02 17.73 L 21.98 17.73 L 21.93 17.73 L 21.88 17.73 L 21.82 17.70 L 21.77 17.70 L 21.73 17.70 L 21.68 17.70 L 21.62 17.70 L 21.57 17.70 L 21.52 17.70 L 21.48 17.70 L 21.43 17.70 L 21.38 17.70 L 21.32 17.70 L 21.27 17.70 L 21.23 17.70 L 21.18 17.70 L 21.12 17.70 L 21.07 17.70 L 21.02 17.70 L 20.98 17.70 L 20.93 17.70 L 20.88 17.70 L 20.82 17.70 L 20.77 17.70 L 20.73 17.70 L 20.68 17.73 L 20.62 17.73 L 20.57 17.73 L 20.52 17.73 L 20.48 17.73 L 20.43 17.73 L 20.38 17.73 L 20.32 17.73 L 20.27 17.73 L 20.23 17.73 L 20.18 17.73 L 20.12 17.73 L 20.07 17.73 L 20.02 17.73 L 19.98 17.73 L 19.93 17.73 L 19.88 17.73 L 19.82 17.73 L 19.77 17.73 L 19.73 17.73 L 19.68 17.73 L 19.62 17.73 L 19.57 17.73 L 19.52 17.73 L 19.48 17.73 L 19.43 17.73 L 19.38 17.73 L 19.32 17.73 L 19.27 17.73 L 19.23 17.73 L 19.18 17.73 L 19.12 17.73 L 19.07 17.73 L 19.02 17.73 L 18.98 17.73 L 18.93 17.73 L 18.88 17.73 L 18.82 17.73 L 18.77 17.73 L 18.73 17.73 L 18.68 17.73 L 18.62 17.73 L 18.57 17.73 L 18.52 17.73 L 18.48 17.73 L 18.43 17.73 L 18.38 17.73 L 18.32 17.73 L 18.27 17.73 L 18.23 17.73 L 18.18 17.73 L 18.12 17.73 L 18.07 17.73 L 18.02 17.73 L 17.98 17.73 L 17.93 17.70 L 17.88 17.70 L 17.82 17.70 L 17.77 17.70 L 17.73 17.70 L 17.68 17.70 L 17.62 17.70 L 17.57 17.70 L 17.52 17.70 L 17.48 17.70 L 17.43 17.70 L 17.38 17.70 L 17.32 17.73 L 17.27 17.73 L 17.23 17.73 L 17.18 17.73 L 17.12 17.73 L 17.07 17.73 L 17.02 17.73 L 16.98 17.73 L 16.93 17.73 L 16.88 17.70 L 16.82 17.70 L 16.77 17.70 L 16.73 17.68 L 16.68 17.68 L 16.62 17.65 L 16.57 17.62 L 16.52 17.62 L 16.48 17.60 L 16.43 17.55 L 16.38 17.52 L 16.32 17.48 L 16.27 17.43 L 16.25 17.38 L 16.20 17.32 L 16.18 17.27 L 16.18 17.23 L 16.15 17.18 L 16.12 17.12 L 16.12 17.07 L 16.10 17.02 L 16.10 16.98 L 16.10 16.93 L 16.10 16.88 L 16.10 16.82 L 16.10 16.77 L 16.10 16.73 L 16.12 16.68 L 16.12 16.62 L 16.15 16.57 L 16.15 16.52 L 16.18 16.48 L 16.18 16.43 L 16.20 16.38 L 16.23 16.32 L 16.25 16.27 L 16.27 16.23 L 16.30 16.18 L 16.35 16.12 L 16.38 16.07 L 16.43 16.02 L 16.45 15.97 L 16.50 15.93 L 16.52 15.88 L 16.57 15.82 L 16.60 15.78 L 16.62 15.72 L 16.65 15.68 L 16.68 15.62 L 16.70 15.57 L 16.73 15.53 L 16.75 15.47 L 16.77 15.43 L 16.80 15.38 L 16.82 15.32 L 16.82 15.28 L 16.85 15.22 L 16.85 15.18 L 16.88 15.12 L 16.90 15.07 L 16.90 15.03 L 16.90 14.97 L 16.93 14.93 L 16.93 14.88 L 16.95 14.82 L 16.95 14.78 L 16.98 14.72 L 16.98 14.68 L 17.00 14.62 L 17.00 14.57 L 17.02 14.53 L 17.02 14.47 L 17.05 14.43 L 17.05 14.38 L 17.07 14.32 L 17.10 14.28 L 17.12 14.22 L 17.15 14.18 L 17.15 14.12 L 17.18 14.07 L 17.20 14.03 L 17.23 13.97 L 17.25 13.93 L 17.27 13.88 L 17.30 13.82 L 17.35 13.78 L 17.38 13.72 L 17.40 13.68 L 17.43 13.62 L 17.45 13.57 L 17.50 13.53 L 17.52 13.47 L 17.52 13.43 L 17.55 13.38 L 17.57 13.32 L 17.60 13.28 L 17.62 13.22 L 17.65 13.18 L 17.65 13.12 L 17.68 13.07 L 17.70 13.03 L 17.70 12.97 L 17.73 12.93 L 17.75 12.88 L 17.75 12.82 L 17.77 12.78 L 17.77 12.72 L 17.77 12.68 L 17.80 12.62 L 17.80 12.57 L 17.82 12.53 L 17.82 12.47 L 17.82 12.43 L 17.85 12.38 L 17.85 12.32 L 17.85 12.28 L 17.88 12.22 L 17.88 12.18 L 17.90 12.12 L 17.90 12.07 L 17.93 12.03 L 17.93 11.97 L 17.95 11.93 L 17.98 11.88 L 17.98 11.82 L 18.00 11.78 L 18.00 11.72 L 18.02 11.68 L 18.05 11.62 L 18.07 11.57 L 18.07 11.53 L 18.10 11.47 L 18.12 11.43 L 18.15 11.38 L 18.18 11.32 L 18.20 11.28 L 18.25 11.22 L 18.27 11.18 L 18.30 11.12 L 18.35 11.07 L 18.38 11.03 L 18.43 10.97 L 18.45 10.93 L 18.50 10.88 L 18.52 10.82 L 18.55 10.78 L 18.60 10.72 L 18.62 10.68 L 18.65 10.62 L 18.68 10.57 L 18.70 10.53 L 18.73 10.47 L 18.75 10.43 L 18.77 10.38 L 18.77 10.32 L 18.80 10.28 L 18.82 10.22 L 18.82 10.18 L 18.85 10.12 L 18.88 10.07 L 18.88 10.03 L 18.90 9.97 L 18.90 9.93 L 18.93 9.88 L 18.93 9.82 L 18.93 9.78 L 18.95 9.72 L 18.95 9.68 L 18.98 9.62 L 18.98 9.57 L 18.98 9.53 L 19.00 9.47 L 19.00 9.43 L 19.00 9.38 L 19.02 9.32 L 19.02 9.28 L 19.02 9.22 L 19.05 9.18 L 19.05 9.12 L 19.07 9.07 L 19.07 9.03 L 19.10 8.97 L 19.10 8.93 L 19.12 8.88 L 19.15 8.82 L 19.18 8.78 L 19.18 8.72 L 19.20 8.68 L 19.23 8.62 L 19.25 8.57 L 19.27 8.53 L 19.30 8.47 L 19.32 8.43 L 19.35 8.38 L 19.40 8.32 L 19.43 8.28 L 19.45 8.22 L 19.48 8.18 L 19.50 8.12 L 19.52 8.07 L 19.55 8.03 L 19.57 7.97 L 19.60 7.92 L 19.62 7.88 L 19.65 7.83 L 19.68 7.78 L 19.68 7.72 L 19.70 7.67 L 19.73 7.62 L 19.73 7.58 L 19.75 7.53 L 19.75 7.47 L 19.77 7.42 L 19.77 7.38 L 19.80 7.33 L 19.80 7.28 L 19.82 7.22 L 19.82 7.17 L 19.85 7.12 L 19.85 7.08 L 19.88 7.03 L 19.88 6.97 L 19.90 6.92 L 19.90 6.88 L 19.93 6.83 L 19.93 6.78 L 19.95 6.72 L 19.95 6.67 L 19.98 6.62 L 19.98 6.58 L 20.00 6.53 L 20.02 6.47 L 20.02 6.42 L 20.05 6.38 L 20.07 6.33 L 20.10 6.28 L 20.12 6.22 L 20.15 6.17 L 20.18 6.12 L 20.23 6.08 L 20.25 6.03 L 20.30 5.97 L 20.35 5.92 L 20.38 5.88 L 20.43 5.83 L 20.48 5.78 L 20.52 5.72 L 20.55 5.67 L 20.57 5.62 L 20.62 5.58 L 20.62 5.53 L 20.68 5.47 L 20.68 5.42 L 20.70 5.38 L 20.73 5.33 L 20.73 5.28 L 20.75 5.22 L 20.77 5.17 L 20.77 5.12 L 20.80 5.08 L 20.80 5.03 L 20.82 4.97 L 20.82 4.92 L 20.85 4.88 L 20.85 4.83 L 20.85 4.78 L 20.85 4.72 L 20.88 4.67 L 20.88 4.62 L 20.88 4.58 L 20.90 4.53 L 20.90 4.47 L 20.90 4.42 L 20.93 4.38 L 20.93 4.33 L 20.93 4.28 L 20.93 4.22 L 20.95 4.17 L 20.95 4.12 L 20.98 4.08 L 20.98 4.03 L 20.98 3.98 L 21.00 3.92 L 21.02 3.88 L 21.02 3.83 L 21.05 3.77 L 21.05 3.73 L 21.07 3.67 L 21.10 3.62 L 21.10 3.58 L 21.12 3.52 L 21.15 3.48 L 21.18 3.42 L 21.20 3.38 L 21.23 3.33 L 21.25 3.27 L 21.27 3.23 L 21.30 3.17 L 21.35 3.12 L 21.38 3.08 L 21.43 3.02 L 21.45 2.98 L 21.48 2.92 L 21.52 2.88 L 21.55 2.83 L 21.57 2.77 L 21.60 2.73 L 21.62 2.67 L 21.65 2.62 L 21.68 2.58 L 21.70 2.52 L 21.73 2.48 L 21.75 2.42 L 21.75 2.38 L 21.77 2.33 L 21.80 2.27 L 21.80 2.23 L 21.82 2.17 L 21.85 2.12 L 21.85 2.08 L 21.88 2.02 L 21.88 1.98 L 21.90 1.93 L 21.90 1.88 L 21.93 1.82 L 21.93 1.77 L 21.95 1.73 L 21.95 1.68 L 21.95 1.62 L 21.95 1.57 L 21.98 1.52 L 21.98 1.48 L 21.98 1.43 L 21.98 1.38 L 21.98 1.32 L 21.98 1.27 L 21.98 1.23 L 21.98 1.18 L 21.98 1.12 L 21.98 1.07 L 21.98 1.02 L 21.95 0.97 L 21.95 0.93 L 21.95 0.88 L 21.95 0.82 L 21.95 0.78 L 21.95 0.72 L 21.95 0.68 L 21.93 0.62 L 21.93 0.57 L 21.93 0.53 L 21.93 0.47 L 21.93 0.42 L 21.93 0.38 L 21.93 0.33 L 21.90 0.28 L 21.90 0.23 L 21.90 0.17 L 21.90 0.12 L 21.90 0.07 L 21.90 0.03 L 21.88 0.00 L 21.82 0.00 L 21.77 0.00 L 21.73 0.00 L 21.68 0.00 L 21.62 0.00 L 21.57 0.00 L 21.52 0.00 L 21.48 0.00 L 21.43 0.00 L 21.38 0.00 L 21.32 0.00 L 21.27 0.00 L 21.23 0.00 L 21.18 0.00 L 21.12 0.00 L 21.07 0.00 L 21.02 0.00 L 20.98 0.00 L 20.93 0.00 L 20.88 0.00 L 20.82 0.00 L 20.77 0.00 L 20.73 0.00 L 20.68 0.00 L 20.62 0.00 L 20.57 0.00 L 20.52 0.00 L 20.48 0.00 L 20.43 0.00 L 20.38 0.00 L 20.32 0.00 L 20.27 0.00 L 20.23 0.00 L 20.18 0.00 L 20.12 0.00 L 20.07 0.00 L 20.02 0.00 L 19.98 0.00 L 19.93 0.00 L 19.88 0.00 L 19.82 0.00 L 19.77 0.00 L 19.73 0.00 L 19.68 0.00 L 19.62 0.00 L 19.57 0.00 L 19.52 0.00 L 19.48 0.00 L 19.43 0.00 L 19.38 0.00 L 19.32 0.00 L 19.27 0.00 L 19.23 0.00 L 19.18 0.00 L 19.12 0.00 Z"/>
</svg>